<svg width="19" height="12" viewBox="0 0 19 12" fill="none" xmlns="http://www.w3.org/2000/svg">
<path d="M3.56276 4.70082C4.17891 4.60926 4.73638 4.52567 5.29804 4.44207C6.47165 4.2709 7.64527 4.09973 8.82308 3.93253C8.89433 3.92457 8.99074 3.95244 9.04522 3.99623C9.36378 4.24701 9.81646 4.20721 10.0638 3.89671C10.3111 3.58621 10.2314 3.14832 9.8961 2.93336C9.56497 2.72238 9.12486 2.8219 8.90691 3.14434C8.8608 3.21202 8.76439 3.27969 8.68476 3.29163C6.87403 3.56232 5.06331 3.82505 3.25259 4.08778C3.09332 4.11167 2.92985 4.11963 2.77476 4.15944C2.36819 4.2709 1.99096 4.19526 1.60534 4.04798C1.08979 3.8569 0.561659 3.68971 0 3.49863C0.0880212 3.4628 0.146702 3.43892 0.209574 3.41902C3.25678 2.38402 6.2998 1.353 9.34701 0.321988C9.43503 0.290142 9.55659 0.286162 9.64461 0.318008C12.7044 1.34902 15.76 2.388 18.8156 3.42698C18.8659 3.4429 18.9162 3.46679 19 3.50261C18.5473 3.65786 18.1282 3.80117 17.7048 3.94448C15.0432 4.84811 12.3816 5.74776 9.72424 6.65537C9.57754 6.70712 9.44761 6.71508 9.29671 6.66333C7.46503 6.03835 5.62916 5.41736 3.79749 4.79238C3.73461 4.76849 3.67593 4.74461 3.56276 4.70082Z" fill="#AAAEAE"/>
<path d="M3.66755 5.43362C4.06993 5.56897 4.45136 5.69635 4.82859 5.82374C6.32914 6.33327 7.8297 6.84679 9.33444 7.35235C9.43503 7.38419 9.56916 7.38419 9.66557 7.35235C11.4847 6.74329 13.2996 6.12229 15.1145 5.50528C15.1774 5.48537 15.2444 5.46547 15.3325 5.44159C15.3325 5.5212 15.3325 5.58091 15.3325 5.6446C15.3325 6.79106 15.3283 7.93752 15.3366 9.08398C15.3408 9.37059 15.2277 9.58157 15.0097 9.7607C14.4858 10.1946 13.8612 10.4534 13.2074 10.6444C10.6212 11.4048 8.03927 11.3849 5.47408 10.5409C4.94596 10.3618 4.43879 10.1309 4.00706 9.77265C3.78072 9.58555 3.66336 9.36263 3.66336 9.06407C3.67594 7.92956 3.66755 6.79504 3.66755 5.65655C3.66755 5.59684 3.66755 5.53314 3.66755 5.43362Z" fill="#AAAEAE"/>
<path d="M2.52327 4.48227C2.75799 4.48227 2.97176 4.48227 3.21067 4.48227C3.21067 4.5579 3.21067 4.62956 3.21067 4.69723C3.21067 6.52838 3.21067 8.35554 3.21067 10.1867C3.21067 10.3101 3.23163 10.3977 3.34061 10.4892C3.61725 10.7241 3.61306 11.1421 3.3448 11.3889C3.08074 11.6357 2.65321 11.6357 2.38914 11.3889C2.12508 11.1421 2.12089 10.7241 2.39752 10.4892C2.5065 10.3977 2.52746 10.3101 2.52746 10.1867C2.52327 8.35554 2.52746 6.52838 2.52746 4.69723C2.52327 4.62956 2.52327 4.5579 2.52327 4.48227Z" fill="#AAAEAE"/>
</svg>
