<svg width="133" height="48" viewBox="0 0 133 48" fill="none" xmlns="http://www.w3.org/2000/svg">
<g clip-path="url(#clip0_2_6)">
<path d="M0.0107986 24.0164C-0.240516 10.5317 10.6753 -0.0437898 23.7327 -4.40666e-05C36.8885 0.0437017 47.9791 10.3786 47.5857 24.7163C47.2361 37.4463 37.1944 47.125 25.2843 47.9453C10.6534 48.9514 -0.404417 36.5386 0.0107986 24.0164ZM3.2014 23.9179C2.98287 35.4559 12.2706 44.205 22.3341 44.719C35.2604 45.3752 44.0782 35.434 44.3951 24.8257C44.7776 12.0082 35.0528 3.2262 23.7218 3.23714C12.0739 3.24808 2.97194 12.544 3.2014 23.9179Z" fill="#263238"/>
<path d="M114.173 16.9843C112.469 16.9843 110.884 16.9843 109.234 16.9843C109.234 15.9672 109.234 15.0157 109.234 14.0205C109.322 13.9986 109.431 13.9549 109.54 13.9549C112.108 13.9549 114.665 13.9549 117.233 13.944C117.703 13.944 118.019 14.0096 118.019 14.6001C118.019 17.4545 117.517 20.134 115.233 22.1244C113.015 24.0602 110.414 24.6945 107.497 24.2789C105.334 23.9727 103.476 23.1196 101.99 21.5448C100.46 19.9152 99.7063 17.9358 99.597 15.6938C99.4878 13.4409 99.6954 11.2645 101.018 9.32878C102.809 6.72591 105.312 5.44634 108.437 5.27136C111.201 5.11825 113.627 5.8838 115.637 7.79768C116.719 8.8257 117.32 10.0396 117.637 11.6364C116.337 11.6364 115.069 11.6473 113.791 11.6145C113.627 11.6145 113.441 11.352 113.332 11.1661C112.053 9.11005 109.431 8.4648 107.169 9.16473C104.864 9.8756 103.553 11.8988 103.487 14.3267C103.443 16.0328 103.716 17.5967 104.875 18.9747C106.59 21.0089 109.879 21.3589 112.185 19.8387C113.19 19.1825 113.802 18.2748 114.173 16.9843Z" fill="#263238"/>
<path d="M81.6117 24.0383C81.9395 23.0977 82.2236 22.2556 82.5186 21.4245C84.2122 16.7327 85.9059 12.052 87.5886 7.36022C88.2114 5.63227 88.2005 5.62133 90.0689 5.63227C90.364 5.63227 90.659 5.63227 90.954 5.63227C92.8662 5.63227 92.8771 5.63227 93.5218 7.44771C95.4777 12.9378 97.4335 18.417 99.4331 24.0383C98.1438 24.0383 96.8981 24.0711 95.6634 24.0055C95.4558 23.9945 95.2045 23.5461 95.0843 23.2509C94.7237 22.2994 94.4178 21.337 94.0681 20.3308C91.9046 20.3308 89.7521 20.309 87.6104 20.3527C87.37 20.3527 87.0204 20.6699 86.9111 20.9214C86.5615 21.7416 86.2664 22.5947 85.9933 23.4477C85.8512 23.918 85.6108 24.082 85.1191 24.0602C84.0046 24.0055 82.8792 24.0383 81.6117 24.0383ZM90.5606 10.4005C89.7411 12.7191 89.0091 14.7861 88.2551 16.9187C89.8286 16.9187 91.3255 16.9187 92.899 16.9187C92.145 14.797 91.3911 12.7191 90.5606 10.4005Z" fill="#263238"/>
<path d="M110.404 33.1155C110.458 31.4422 110.688 30.0752 111.671 28.9597C112.261 28.2816 113.048 27.9535 113.944 27.877C115.069 27.7895 116.053 28.0738 116.839 28.9159C117.397 29.5174 117.735 30.2502 117.877 31.0376C118.151 32.4812 118.162 33.9248 117.626 35.3247C116.981 37.0198 115.878 37.7635 114.261 37.7854C112.381 37.8072 111.092 36.7573 110.622 34.6576C110.491 34.0779 110.458 33.4764 110.404 33.1155ZM116.162 32.8312C115.987 32.0984 115.867 31.4204 115.659 30.7751C115.441 30.1299 114.971 29.6924 114.261 29.6705C113.594 29.6487 113.113 30.0971 112.829 30.797C112.283 32.1422 112.316 33.5311 112.786 34.8982C113.004 35.5325 113.474 36.0027 114.184 36.0027C114.84 36.0137 115.353 35.6528 115.572 35.0294C115.812 34.3185 115.965 33.5639 116.162 32.8312Z" fill="#263238"/>
<path d="M53.9889 18.406C55.3111 18.406 56.6004 18.406 57.8898 18.406C58.5344 20.648 60.1953 21.5557 62.3806 20.823C63.1783 20.5605 63.7356 20.0684 63.8667 19.1825C64.0087 18.1982 63.4405 17.5967 62.6538 17.2686C61.1022 16.6343 59.5069 16.1094 57.9335 15.5516C54.2402 14.2502 53.388 10.3131 55.1909 7.75393C56.2726 6.21189 57.8679 5.49009 59.649 5.29323C61.4519 5.09638 63.2657 5.20574 64.8938 6.21189C66.6093 7.28366 67.4725 8.8257 67.5818 10.9474C66.2815 10.9474 65.014 10.9474 63.7465 10.9474C63.2111 8.41012 60.9274 8.19139 59.3976 8.96787C58.8841 9.23035 58.4033 9.89747 58.2503 10.4662C58.0864 11.0786 58.4798 11.7239 59.1682 11.9973C60.6979 12.5988 62.2604 13.1565 63.7902 13.7799C64.9812 14.2611 66.0957 14.8298 66.8934 15.9344C68.5105 18.1763 67.8549 22.1135 65.156 23.4368C62.2932 24.8476 59.3649 24.8804 56.5676 23.2071C54.8194 22.1681 54.1419 20.4839 53.9889 18.406Z" fill="#263238"/>
<path d="M124.597 9.08818C124.597 10.488 124.597 11.7129 124.597 13.0144C126.695 13.0144 128.739 13.0144 130.858 13.0144C130.858 14.2174 130.858 15.3548 130.858 16.5796C128.804 16.5796 126.728 16.5796 124.608 16.5796C124.608 17.9029 124.608 19.1278 124.608 20.4511C126.968 20.4511 129.329 20.4511 131.754 20.4511C131.754 21.676 131.754 22.8134 131.754 23.9945C128.094 23.9945 124.455 23.9945 120.729 23.9945C120.729 17.9358 120.729 11.8551 120.729 5.69788C124.302 5.69788 127.897 5.69788 131.569 5.69788C131.569 6.78059 131.569 7.88517 131.569 9.08818C129.285 9.08818 126.979 9.08818 124.597 9.08818Z" fill="#263238"/>
<path d="M126.346 33.3999C126.531 31.6063 126.717 29.8674 126.914 28.0957C128.771 28.0957 130.618 28.0957 132.486 28.0957C132.486 28.6425 132.486 29.1565 132.486 29.7362C131.241 29.7362 129.984 29.7362 128.673 29.7362C128.597 30.3814 128.52 30.9829 128.444 31.6063C130.126 30.9282 132.038 31.5516 132.683 33.0171C133.557 35.0294 132.574 37.3589 130.159 37.7198C129.001 37.8947 127.996 37.6213 127.067 36.9651C126.411 36.5058 126.204 35.7949 126.062 35.0622C126.051 35.0075 126.225 34.8653 126.324 34.8653C126.662 34.8435 127.012 34.8982 127.351 34.8763C127.766 34.8435 128.061 34.8872 128.258 35.3575C128.509 35.9481 129.165 36.1558 129.798 36.0137C130.454 35.8606 130.946 35.3137 131.011 34.6576C131.088 33.9248 130.847 33.3999 130.268 33.0936C129.733 32.7984 128.946 32.9077 128.444 33.3124C128.312 33.4217 128.127 33.4983 127.963 33.5092C127.515 33.5311 127.056 33.5092 126.608 33.4983C126.531 33.4764 126.455 33.4327 126.346 33.3999Z" fill="#263238"/>
<path d="M105.792 35.8168C107.049 35.8168 108.24 35.8168 109.464 35.8168C109.464 36.4293 109.464 36.987 109.464 37.5885C107.333 37.5885 105.213 37.5885 103.039 37.5885C103.039 37.0964 103.028 36.6152 103.05 36.1449C103.05 36.0465 103.148 35.9371 103.236 35.8606C104.448 34.6576 105.683 33.4655 106.863 32.2297C107.268 31.8031 107.563 31.2454 107.377 30.5892C107.169 29.8674 106.71 29.5721 105.945 29.6596C105.508 29.7143 104.875 30.1846 104.918 30.8954C104.918 30.961 104.907 31.0157 104.907 31.1142C104.296 31.1142 103.673 31.1142 103.061 31.1142C102.809 30.0424 103.563 28.6316 104.754 28.1613C106 27.6692 107.257 27.6582 108.382 28.5222C108.928 28.9378 109.213 29.5284 109.3 30.1736C109.497 31.4751 109.092 32.6234 108.164 33.553C107.41 34.3185 106.623 35.0294 105.792 35.8168Z" fill="#263238"/>
<path d="M125.384 35.8168C125.384 36.4621 125.384 37.0089 125.384 37.5885C123.253 37.5885 121.134 37.5885 118.948 37.5885C118.948 37.0745 118.937 36.5496 118.959 36.0355C118.97 35.9262 119.112 35.8168 119.21 35.7184C120.467 34.4498 121.756 33.203 122.98 31.9016C123.472 31.3766 123.417 30.4689 123.013 30.0314C122.641 29.6268 122.172 29.5721 121.691 29.6924C121.166 29.8346 120.915 30.2611 120.828 30.7861C120.806 30.8845 120.828 30.9938 120.828 31.1251C120.697 31.136 120.587 31.147 120.478 31.1579C119.953 31.1579 119.429 31.1579 118.905 31.1579C118.817 29.7799 119.516 28.566 120.882 28.0848C122.325 27.5817 123.887 27.866 124.674 28.9487C125.329 29.8455 125.362 30.8298 125.078 31.8578C124.849 32.6781 124.313 33.2905 123.723 33.8592C123.144 34.406 122.565 34.9419 121.986 35.4887C121.898 35.5762 121.822 35.6637 121.68 35.8278C122.947 35.8168 124.138 35.8168 125.384 35.8168Z" fill="#263238"/>
<path d="M77.8747 24.0055C76.5089 24.0055 75.2742 24.0055 74.0395 24.0055C74.0395 19.0403 74.0395 14.1299 74.0395 9.1538C72.3349 9.1538 70.6413 9.1538 68.882 9.1538C68.882 7.9836 68.882 6.87902 68.882 5.69788C73.515 5.69788 78.1807 5.69788 82.9229 5.69788C82.9229 6.79153 82.9229 7.91798 82.9229 9.13192C81.2729 9.13192 79.6121 9.13192 77.8638 9.13192C77.8747 14.108 77.8747 19.0185 77.8747 24.0055Z" fill="#263238"/>
<path d="M29.819 12.8066C29.0104 13.8346 28.2128 14.5673 26.694 14.5236C22.3342 14.3923 17.9745 14.4908 13.6147 14.4689C12.828 14.4689 12.5439 14.6439 12.5439 15.4969C12.5876 19.5653 12.5767 23.6336 12.5548 27.702C12.5439 28.566 12.8935 28.8503 13.7021 28.8175C14.8385 28.7847 15.9858 28.8066 17.2096 28.8066C16.9255 29.8565 16.6305 30.797 16.4338 31.7485C16.0951 33.378 17.8105 34.92 19.3621 34.3185C21.5147 33.4764 23.6782 32.6015 25.7324 31.5516C26.7158 31.0485 27.4479 30.0533 28.3658 29.3753C28.781 29.069 29.3492 28.8612 29.8518 28.8284C31.1411 28.7519 32.4414 28.7738 33.7417 28.8175C34.5831 28.8503 34.889 28.5003 34.8672 27.6692C34.8235 26.1928 34.8999 24.7163 34.8453 23.2509C34.8125 22.4853 34.9873 21.9057 35.5992 21.4135C36.0582 21.0526 36.4297 20.5824 36.823 20.1777C37.5333 20.3636 37.7081 20.8011 37.7081 21.4463C37.6863 24.3664 37.6753 27.2864 37.73 30.2064C37.7409 30.7423 37.9813 31.3438 38.3091 31.7703C39.0193 32.7109 39.1723 33.6842 38.7024 34.7122C38.2435 35.7293 37.3584 36.2543 36.2548 36.2543C27.8522 36.2652 19.4605 36.2652 11.0578 36.2543C9.93238 36.2543 9.10195 35.6746 8.68674 34.6357C8.28245 33.6514 8.36986 32.6671 9.11288 31.8688C9.59366 31.3548 9.75756 30.8298 9.75756 30.1299C9.7357 24.8476 9.74663 19.5762 9.74663 14.2939C9.74663 12.555 10.741 11.4833 12.5002 11.4833C17.5374 11.4614 22.5746 11.4833 27.6118 11.4723C28.628 11.4614 29.2945 11.9754 29.819 12.8066Z" fill="#263238"/>
<path d="M31.8405 14.447C33.108 15.7047 34.3645 16.9296 35.5665 18.1982C35.6757 18.3076 35.4791 18.8872 35.2824 19.095C32.9987 21.4245 30.6822 23.7102 28.3767 26.0178C27.579 26.8271 26.7705 27.6254 26.0056 28.4675C24.4103 30.2174 22.1485 30.7861 20.1379 31.8031C19.6353 32.0547 19.0999 32.2515 18.3787 32.5578C18.4224 32.0109 18.4006 31.6391 18.4989 31.3001C18.8049 30.272 19.231 29.2768 19.4714 28.2488C19.8866 26.4224 21.0339 25.1538 22.3342 23.8961C25.5139 20.8011 28.628 17.6405 31.8405 14.447ZM21.5475 27.1114C21.1978 28.1176 20.9028 28.9487 20.5532 29.933C21.4929 29.4846 22.2796 29.1128 22.9352 28.7956C22.509 28.2707 22.072 27.7348 21.5475 27.1114Z" fill="#68DDCF"/>
<path d="M32.8894 13.4737C34.2006 11.8988 35.1294 11.6473 36.2767 12.3691C37.8064 13.3206 38.5713 14.8626 38.0359 15.9781C37.872 16.3172 37.6535 16.6562 37.3694 16.8859C37.2055 17.0171 36.8667 16.9296 36.6154 16.9296C36.5717 16.9296 36.5389 16.853 36.4952 16.8093C35.2933 15.7047 34.1023 14.6001 32.8894 13.4737Z" fill="#68DDCF"/>
<path d="M55.1472 31.9672H56.4693L56.8627 34.6357C56.9391 35.2372 57.0156 35.8387 57.0921 36.4402H57.1249C57.2342 35.8387 57.3544 35.2263 57.4636 34.6357L58.0755 31.9672H59.1682L59.7801 34.6357C59.8893 35.2153 60.0095 35.8278 60.1188 36.4402H60.1516C60.2281 35.8278 60.3046 35.2263 60.381 34.6357L60.7744 31.9672H62.0091L60.9929 37.6651H59.3758L58.8185 35.0731C58.7311 34.6357 58.6546 34.1764 58.5891 33.7498H58.5672C58.5017 34.1764 58.4252 34.6357 58.3378 35.0731L57.8023 37.6651H56.207L55.1472 31.9672Z" fill="#68DDCF"/>
<path d="M62.8068 31.9672H64.0961V37.6651H62.8068V31.9672Z" fill="#68DDCF"/>
<path d="M65.4401 31.9672H66.7295V36.5933H68.9804V37.676H65.4401V31.9672Z" fill="#68DDCF"/>
<path d="M69.9638 31.9672H71.2531V36.5933H73.504V37.676H69.9638V31.9672Z" fill="#68DDCF"/>
<path d="M74.4874 31.9672H75.7768V37.6651H74.4874V31.9672Z" fill="#68DDCF"/>
<path d="M78.1807 31.9672H79.7213L81.5133 37.6651H80.1475L79.4045 34.7779C79.2515 34.2092 79.0985 33.5311 78.9456 32.9405H78.9128C78.7707 33.542 78.6177 34.2092 78.4648 34.7779L77.7218 37.6651H76.3996L78.1807 31.9672ZM77.5797 35.3137H80.3114V36.3199H77.5797V35.3137Z" fill="#68DDCF"/>
<path d="M82.0597 31.9672H83.4692L84.398 34.5044C84.5072 34.8435 84.6165 35.2044 84.7258 35.5543H84.7586C84.8678 35.2044 84.9662 34.8435 85.0864 34.5044L85.9824 31.9672H87.3919V37.6651H86.2118V35.5762C86.2118 35.0185 86.3211 34.1873 86.3757 33.6405H86.3429L85.8731 34.9856L85.0645 37.1729H84.3543L83.5457 34.9856L83.0868 33.6405H83.054C83.1196 34.1873 83.2179 35.0185 83.2179 35.5762V37.6651H82.0597V31.9672Z" fill="#68DDCF"/>
<path d="M90.4732 31.9672H92.4182C93.5983 31.9672 94.5161 32.2953 94.5161 33.378C94.5161 33.892 94.232 34.4388 93.7622 34.6138V34.6466C94.3413 34.7997 94.7893 35.2263 94.7893 35.9918C94.7893 37.1511 93.8059 37.676 92.5712 37.676H90.4732V31.9672ZM92.3636 34.2529C92.9864 34.2529 93.2705 33.9904 93.2705 33.5749C93.2705 33.1374 92.9755 32.9624 92.3745 32.9624H91.7626V34.2529H92.3636ZM92.4838 36.6699C93.1831 36.6699 93.5436 36.4183 93.5436 35.9043C93.5436 35.4012 93.1831 35.2044 92.4838 35.2044H91.7626V36.6808H92.4838V36.6699Z" fill="#68DDCF"/>
<path d="M95.6197 36.9651C95.6197 36.5058 95.9475 36.1559 96.3955 36.1559C96.8435 36.1559 97.1713 36.5058 97.1713 36.9651C97.1713 37.4245 96.8435 37.7744 96.3955 37.7744C95.9585 37.7744 95.6197 37.4245 95.6197 36.9651Z" fill="#68DDCF"/>
</g>
<defs>
<clipPath id="clip0_2_6">
<rect width="133" height="48" fill="white"/>
</clipPath>
</defs>
</svg>
