<svg width="19" height="17" viewBox="0 0 19 17" fill="none" xmlns="http://www.w3.org/2000/svg">
<path d="M18.9575 0.72866C19.0007 0.632118 19.0112 0.526358 18.9879 0.424491C18.9645 0.322623 18.9083 0.229129 18.8261 0.155598C18.7439 0.0820668 18.6394 0.0317331 18.5256 0.0108367C18.4117 -0.0100597 18.2935 -0.000599874 18.1856 0.0380435L0.911671 6.22065H0.910484L0.373752 6.4119C0.272094 6.44818 0.183623 6.5089 0.118111 6.58735C0.0525992 6.6658 0.0125963 6.75892 0.00252124 6.85643C-0.00755381 6.95395 0.0126911 7.05205 0.0610196 7.13992C0.109348 7.22778 0.18388 7.30198 0.276381 7.35433L0.763239 7.63057L0.764426 7.6327L6.69578 11.0093L10.4695 16.3164L10.4719 16.3185L10.7806 16.7541C10.8393 16.8366 10.9223 16.903 11.0204 16.9459C11.1186 16.9889 11.228 17.0068 11.3368 16.9977C11.4456 16.9886 11.5494 16.9528 11.6369 16.8942C11.7244 16.8357 11.7922 16.7567 11.8327 16.666L18.9575 0.72866ZM16.7809 2.73676L7.88205 10.699L7.62675 10.3399C7.57997 10.274 7.51754 10.2181 7.44388 10.1763L7.04252 9.94785L15.9413 1.98558L17.3402 1.48515L16.7809 2.73676Z" fill="white"/>
</svg>
